<?xml version="1.0" encoding="UTF-8"?>
<svg id="a" data-name="Layer 1" xmlns="http://www.w3.org/2000/svg" xmlns:xlink="http://www.w3.org/1999/xlink" viewBox="0 0 592 212.2">
  <defs>
    <style>
      .d {
        fill: url(#b);
        stroke-width: 0px;
      }

      .e {
        fill: none;
        stroke: url(#c);
        stroke-miterlimit: 4;
        stroke-opacity: .6;
        stroke-width: 3px;
      }
    </style>
    <linearGradient id="b" x1="-82.6" y1="241.9" x2="-82.6" y2="-350.1" gradientTransform="translate(241.8 188.6) rotate(90.1)" gradientUnits="userSpaceOnUse">
      <stop offset="0" stop-color="#fece00"/>
      <stop offset="1" stop-color="#e92424"/>
    </linearGradient>
    <linearGradient id="c" x1="-16.5" y1="-231.3" x2="-179.5" y2="194.8" gradientTransform="translate(241.1 190.1) rotate(90.1)" gradientUnits="userSpaceOnUse">
      <stop offset="0" stop-color="#f03f62"/>
      <stop offset="1" stop-color="#fbf1c9"/>
    </linearGradient>
  </defs>
  <path class="d" d="m0,105.5H0c-.1,58.4,47.1,105.8,105.5,105.9l380.6.8c58.4.1,105.8-47.1,105.9-105.5h0c.1-58.4-47.1-105.8-105.5-105.9L105.9,0C47.6-.1.1,47.1,0,105.5Z"/>
  <path class="e" d="m1.5,105.5h0c-.1,57.5,46.4,104.3,104,104.4l380.6.8c57.5.1,104.3-46.4,104.4-104h0c.1-57.5-46.4-104.3-104-104.4L105.9,1.5C48.4,1.4,1.6,47.9,1.5,105.5Z"/>
</svg>